<svg width="26" height="27" viewBox="0 0 26 27" fill="none" xmlns="http://www.w3.org/2000/svg">
<path fill-rule="evenodd" clip-rule="evenodd" d="M12.1673 6.28203C11.8911 6.28203 11.6673 6.05818 11.6673 5.78203C11.6673 5.50589 11.8911 5.28203 12.1673 5.28203L20.444 5.28203C20.6087 5.28203 20.7547 5.36164 20.8458 5.48447C20.9687 5.57557 21.0483 5.72165 21.0483 5.88632L21.0483 14.163C21.0483 14.4392 20.8244 14.663 20.5483 14.663C20.2721 14.663 20.0483 14.4392 20.0483 14.163V6.80062L5.15691 21.692C4.96165 21.8873 4.64506 21.8873 4.4498 21.692C4.25454 21.4967 4.25454 21.1801 4.4498 20.9849L19.1526 6.28203L12.1673 6.28203Z" fill="white"/>
</svg>
