<svg width="44" height="44" fill="none" xmlns="http://www.w3.org/2000/svg"><g clip-path="url(#clip0)" fill="#fff"><path d="M34.947.26H9.52c-1.79 0-3.496.56-4.93 1.622a.63.63 0 10.75 1.014A6.974 6.974 0 019.52 1.52h25.427a7.04 7.04 0 017.032 7.031V25.23a7.04 7.04 0 01-7.032 7.031H24.2c-.26 0-.51.109-.688.298l-8.632 9.177a.428.428 0 01-.486.109.427.427 0 01-.28-.412v-8.227a.946.946 0 00-.945-.945h-3.65a7.04 7.04 0 01-7.03-7.031V8.551c0-1.426.424-2.8 1.227-3.97a.63.63 0 00-1.04-.714 8.248 8.248 0 00-1.448 4.684V25.23c0 4.572 3.72 8.292 8.292 8.292h3.333v7.91c0 .704.422 1.326 1.076 1.585a1.696 1.696 0 001.87-.417l8.538-9.078h10.61c4.573 0 8.292-3.72 8.292-8.292V8.55C43.24 3.98 39.52.26 34.948.26z"/><path d="M31.288 10.387a5.618 5.618 0 00-7.936 0l-1.098 1.099c-.003.003-.012.012-.03.012a.038.038 0 01-.028-.012l-1.081-1.081a5.618 5.618 0 00-7.936 0 5.618 5.618 0 000 7.936l8.126 8.126c.246.246.573.381.92.381.348 0 .675-.135.92-.381L27.612 22a.63.63 0 10-.891-.891l-4.466 4.466a.038.038 0 01-.029.012.038.038 0 01-.028-.012L14.07 17.45a4.356 4.356 0 010-6.153 4.356 4.356 0 016.153 0l1.082 1.081c.245.246.572.381.92.381.347 0 .674-.135.92-.38l1.099-1.1a4.356 4.356 0 016.153 0 4.356 4.356 0 010 6.154l-1.882 1.882a.63.63 0 10.891.891l1.882-1.882a5.618 5.618 0 000-7.936z"/></g><defs><clipPath id="clip0"><path fill="#fff" transform="translate(.794 .26)" d="M0 0h42.878v42.878H0z"/></clipPath></defs></svg>