<svg width="6" height="373" fill="none" xmlns="http://www.w3.org/2000/svg"><path d="M5.5 3V.5h-5V3h5zm-5 367v2.5h5V370h-5zM.5 3.051v2.5h5v-2.5h-5zm5 17.374v-2.5h-5v2.5h5zm-5 .102v2.5h5v-2.5h-5zm5 17.374v-2.5h-5v2.5h5zm-5 .102v2.5h5v-2.5h-5zm5 17.374v-2.5h-5v2.5h5zm-5 .103v2.5h5v-2.5h-5zm5 17.374v-2.5h-5v2.5h5zm-5 .102v2.5h5v-2.5h-5zm5 17.374v-2.5h-5v2.5h5zm-5 .102v2.5h5v-2.5h-5zm5 17.374v-2.5h-5v2.5h5zm-5 .102v2.5h5v-2.5h-5zm5 17.374v-2.5h-5v2.5h5zm-5 .102v2.5h5v-2.5h-5zm5 17.374v-2.5h-5v2.5h5zm-5 .103v2.5h5v-2.5h-5zm5 17.374v-2.5h-5v2.5h5zm-5 .102v2.5h5v-2.5h-5zm5 17.374v-2.5h-5v2.5h5zm-5 .102v2.5h5v-2.5h-5zm5 17.374v-2.5h-5v2.5h5zm-5 .102v2.5h5v-2.5h-5zm5 17.374v-2.5h-5v2.5h5zm-5 .102v2.5h5v-2.5h-5zm5 17.374v-2.5h-5v2.5h5zm-5 .103v2.5h5v-2.5h-5zm5 17.374v-2.5h-5v2.5h5zm-5 .102v2.5h5v-2.5h-5zm5 17.374v-2.5h-5v2.5h5zm-5 .102v2.5h5v-2.5h-5zm5 17.374v-2.5h-5v2.5h5zm-5 .102v2.5h5v-2.5h-5zm5 17.374v-2.5h-5v2.5h5zm-5 .102v2.5h5v-2.5h-5zm5 17.374v-2.5h-5v2.5h5zm-5 .103v2.5h5v-2.5h-5zm5 17.374v-2.5h-5v2.5h5zm-5 .102v2.5h5v-2.5h-5zm5 17.374v-2.5h-5v2.5h5zm-5 .102v2.5h5v-2.5h-5zm5 17.374v-2.5h-5v2.5h5zM.5 3v.051h5V3h-5zm0 17.425v.102h5v-.102h-5zm0 17.476v.102h5v-.102h-5zm0 17.476v.103h5v-.102h-5zm0 17.477v.102h5v-.102h-5zm0 17.476v.102h5v-.102h-5zm0 17.476v.102h5v-.102h-5zm0 17.476v.102h5v-.102h-5zm0 17.476v.103h5v-.103h-5zm0 17.477v.102h5v-.102h-5zm0 17.476v.102h5v-.102h-5zm0 17.476v.102h5v-.102h-5zm0 17.476v.102h5v-.102h-5zm0 17.476v.103h5v-.103h-5zm0 17.477v.102h5v-.102h-5zm0 17.476v.102h5v-.102h-5zm0 17.476v.102h5v-.102h-5zm0 17.476v.102h5v-.102h-5zm0 17.476v.103h5v-.103h-5zm0 17.477v.102h5v-.102h-5zm0 17.476v.102h5v-.102h-5zm0 17.476V370h5v-.051h-5z" fill="#929292"/></svg>